<svg xmlns="http://www.w3.org/2000/svg" xmlns:xlink="http://www.w3.org/1999/xlink" width="940" zoomAndPan="magnify" viewBox="0 0 705 591.000005" height="788" preserveAspectRatio="xMidYMid meet" version="1.2"><defs><clipPath id="7cb7a1044b"><path d="M 59.59375 40 L 591 40 L 591 571.285156 L 59.59375 571.285156 Z M 59.59375 40 "/></clipPath></defs><g id="710b871391"><path style=" stroke:none;fill-rule:nonzero;fill:#004aad;fill-opacity:1;" d="M 176.738281 268.894531 C 177.390625 261.351562 180.542969 254.671875 185.179688 248.585938 C 201.492188 227.144531 238.0625 217.316406 263.644531 233.132812 C 278.714844 242.453125 290.800781 254.445312 300.859375 268.628906 C 309.214844 280.414062 316.757812 292.777344 324.886719 305.226562 C 330.558594 297.171875 336.28125 288.902344 342.148438 280.726562 C 392.546875 210.554688 447.878906 144.679688 512.066406 86.605469 C 551.4375 50.988281 596.617188 24.523438 645.226562 3.597656 C 653.628906 -0.0234375 660.632812 1.386719 667.839844 8.667969 C 664.546875 11.746094 661.261719 14.789062 658 17.871094 C 615.550781 57.953125 574.015625 98.96875 536.308594 143.570312 C 514.734375 169.082031 494.726562 195.921875 474.140625 222.265625 C 432.691406 275.320312 401.675781 335 366.441406 392.011719 C 352.847656 414.023438 339.375 436.117188 325.753906 458.117188 C 320.34375 466.859375 313.222656 466.738281 307.789062 457.800781 C 290.171875 428.800781 276.277344 397.988281 263.152344 366.765625 C 252.1875 340.699219 239.871094 315.269531 224.238281 291.582031 C 216.5 279.871094 207.382812 270.234375 192.398438 268.957031 C 187.339844 268.535156 182.195312 268.894531 176.738281 268.894531 Z M 176.738281 268.894531 "/><g clip-rule="nonzero" clip-path="url(#7cb7a1044b)"><path style=" stroke:none;fill-rule:nonzero;fill:#004aad;fill-opacity:1;" d="M 557.933594 178.125 L 516.640625 219.417969 C 528.570312 245.75 535.1875 274.980469 535.1875 305.769531 C 535.1875 421.714844 441.214844 515.683594 325.269531 515.683594 C 209.328125 515.683594 115.355469 421.714844 115.355469 305.769531 C 115.355469 189.824219 209.328125 95.855469 325.269531 95.855469 C 354.261719 95.855469 381.847656 101.734375 406.949219 112.347656 L 448.542969 70.753906 C 411.71875 51.386719 369.761719 40.433594 325.269531 40.433594 C 178.730469 40.433594 59.9375 159.230469 59.9375 305.769531 C 59.9375 452.308594 178.730469 571.089844 325.269531 571.089844 C 471.8125 571.089844 590.605469 452.296875 590.605469 305.757812 C 590.605469 259.503906 578.761719 215.988281 557.933594 178.125 Z M 557.933594 178.125 "/></g></g></svg>